<?xml version="1.0" encoding="UTF-8" standalone="no"?>
<svg
   xmlns:dc="http://purl.org/dc/elements/1.1/"
   xmlns:cc="http://creativecommons.org/ns#"
   xmlns:rdf="http://www.w3.org/1999/02/22-rdf-syntax-ns#"
   xmlns:svg="http://www.w3.org/2000/svg"
   xmlns="http://www.w3.org/2000/svg"
   xmlns:sodipodi="http://sodipodi.sourceforge.net/DTD/sodipodi-0.dtd"
   xmlns:inkscape="http://www.inkscape.org/namespaces/inkscape"
   width="16"
   height="16"
   viewBox="0 0 16 16"
   id="svg2"
   version="1.1"
   inkscape:version="0.48.4 r9939"
   sodipodi:docname="date_time_normal.svg">
  <metadata
     id="metadata16">
    <rdf:RDF>
      <cc:Work
         rdf:about="">
        <dc:format>image/svg+xml</dc:format>
        <dc:type
           rdf:resource="http://purl.org/dc/dcmitype/StillImage" />
      </cc:Work>
    </rdf:RDF>
  </metadata>
  <defs
     id="defs14" />
  <sodipodi:namedview
     pagecolor="#ffffff"
     bordercolor="#666666"
     borderopacity="1"
     objecttolerance="10"
     gridtolerance="10"
     guidetolerance="10"
     inkscape:pageopacity="0"
     inkscape:pageshadow="2"
     inkscape:window-width="1366"
     inkscape:window-height="713"
     id="namedview12"
     showgrid="false"
     inkscape:zoom="14.75"
     inkscape:cx="8.2033898"
     inkscape:cy="8"
     inkscape:window-x="0"
     inkscape:window-y="24"
     inkscape:window-maximized="1"
     inkscape:current-layer="svg2" />
  <path
     inkscape:connector-curvature="0"
     id="path8"
     d="M 8.092318,3.988942 C 7.7618494,3.9936298 7.4970059,4.2678484 7.5016931,4.5983169 l 0,3.2999992 c 0,0.140625 0.049218,0.276563 0.140625,0.384375 l 1.4999997,1.7999999 c 0.1335935,0.180468 0.3539063,0.269531 0.5742186,0.236718 0.2203125,-0.03515 0.4031246,-0.1875 0.4757816,-0.3984369 0.07266,-0.210937 0.0211,-0.445312 -0.13125,-0.607031 l -1.3593751,-1.6312498 0,-3.0843744 C 8.7040365,4.4365983 8.6407557,4.279567 8.5259115,4.1647234 8.4110679,4.0498798 8.2540365,3.9865984 8.092318,3.988942 z"
     style="fill:#4d4d4d" />
  <path
     inkscape:connector-curvature="0"
     id="path10"
     d="m 8.101693,1.8983174 c -3.3070308,0 -5.9999989,2.6929681 -5.9999989,5.9999987 0,3.3070309 2.6929681,5.9999989 5.9999989,5.9999989 3.307031,0 5.999999,-2.692968 5.999999,-5.9999989 0,-3.3070306 -2.692968,-5.9999987 -5.999999,-5.9999987 z m 0,1.1999998 c 2.657812,0 4.799999,2.1421868 4.799999,4.7999989 0,2.6578119 -2.142187,4.7999989 -4.799999,4.7999989 -2.6578123,0 -4.7999991,-2.142187 -4.7999991,-4.7999989 0,-2.6578121 2.1421868,-4.7999989 4.7999991,-4.7999989 z"
     style="fill:#4d4d4d" />
</svg>
