<?xml version="1.0" encoding="UTF-8" standalone="no"?>
<svg
   xmlns:dc="http://purl.org/dc/elements/1.1/"
   xmlns:cc="http://creativecommons.org/ns#"
   xmlns:rdf="http://www.w3.org/1999/02/22-rdf-syntax-ns#"
   xmlns:svg="http://www.w3.org/2000/svg"
   xmlns="http://www.w3.org/2000/svg"
   xmlns:sodipodi="http://sodipodi.sourceforge.net/DTD/sodipodi-0.dtd"
   xmlns:inkscape="http://www.inkscape.org/namespaces/inkscape"
   width="16"
   height="16"
   viewBox="0 0 16 16"
   id="svg2"
   version="1.1"
   inkscape:version="0.48.4 r9939"
   sodipodi:docname="keyboard_normal.svg">
  <metadata
     id="metadata10">
    <rdf:RDF>
      <cc:Work
         rdf:about="">
        <dc:format>image/svg+xml</dc:format>
        <dc:type
           rdf:resource="http://purl.org/dc/dcmitype/StillImage" />
      </cc:Work>
    </rdf:RDF>
  </metadata>
  <defs
     id="defs8" />
  <sodipodi:namedview
     pagecolor="#ffffff"
     bordercolor="#666666"
     borderopacity="1"
     objecttolerance="10"
     gridtolerance="10"
     guidetolerance="10"
     inkscape:pageopacity="0"
     inkscape:pageshadow="2"
     inkscape:window-width="1366"
     inkscape:window-height="713"
     id="namedview6"
     showgrid="false"
     inkscape:zoom="10.429825"
     inkscape:cx="37.3566"
     inkscape:cy="16.61285"
     inkscape:window-x="0"
     inkscape:window-y="24"
     inkscape:window-maximized="1"
     inkscape:current-layer="svg2" />
  <path
     style="fill:#4d4d4d"
     d="m 4.5013472,3.4622913 0,0.374657 -0.116462,0 0,1.125068 0.151621,0 c 0.0055,0.08021 0.01758,0.158213 0.04724,0.246109 0.05823,0.176891 0.184582,0.352683 0.398828,0.481231 0.213148,0.127449 0.503205,0.21095 0.902033,0.21095 0.250503,0 0.466947,-0.119758 0.680095,-0.27028 0.212049,-0.149423 0.426295,-0.342795 0.655924,-0.527376 0.459256,-0.366966 0.976744,-0.703168 1.66453,-0.703168 0.312031,0 0.527376,0.137337 0.714155,0.386742 0.186779,0.249405 0.32082,0.600989 0.4109138,0.961363 0.105475,0.425197 0.14393,0.806446 0.163706,1.08991 l -6.9844348,0 c -0.579015,0 -1.054752,0.476836 -1.054752,1.054752 l 0,3.8904957 c 0,0.579015 0.475737,1.054752 1.054752,1.054752 l 9.8904958,0 c 0.579015,0 1.054752,-0.475737 1.054752,-1.054752 l 0,-3.8904957 c 0,-0.577916 -0.475737,-1.054752 -1.054752,-1.054752 l -2.531404,0 c -0.01538,-0.29555 -0.04505,-0.697674 -0.163707,-1.172313 -0.09778,-0.388939 -0.24501,-0.787768 -0.4801308,-1.100897 -0.235122,-0.313129 -0.582311,-0.539462 -1.019594,-0.539462 -0.813038,0 -1.420619,0.402125 -1.898553,0.785571 -0.239517,0.191173 -0.447171,0.383446 -0.632851,0.51529 -0.18678,0.131844 -0.343894,0.198865 -0.469145,0.198865 -0.351584,0 -0.576818,-0.06922 -0.715254,-0.151621 -0.137337,-0.0835 -0.198865,-0.176891 -0.234023,-0.281267 -0.01538,-0.04505 -0.03076,-0.0846 -0.03516,-0.129647 l 0.234023,0 0,-1.125068 -0.128548,0 0,-0.374657 z m -1.311847,4.125618 9.8904958,0 c 0.175792,0 0.305439,0.128548 0.305439,0.30434 l 0,3.8904957 c 0,0.175792 -0.129647,0.305439 -0.305439,0.305439 l -9.8904958,0 c -0.175792,0 -0.305439,-0.129647 -0.305439,-0.305439 l 0,-3.8904957 c 0,-0.175792 0.129647,-0.30434 0.305439,-0.30434 z m 0.07032,0.374657 0,0.750412 0.374656,0 0,-0.750412 z m 0.749313,0 0,0.750412 0.750412,0 0,-0.750412 z m 1.125069,0 0,0.750412 0.750412,0 0,-0.750412 z m 1.125068,0 0,0.750412 0.750412,0 0,-0.750412 z m 1.125069,0 0,0.750412 0.750412,0 0,-0.750412 z m 1.125069,0 0,0.750412 0.750412,0 0,-0.750412 z m 1.125068,0 0,0.750412 0.7504118,0 0,-0.750412 z m 1.1250688,0 0,0.750412 1.500824,0 0,-0.750412 z m 1.875481,0 0,0.750412 0.374656,0 0,-0.750412 z m -9.3752058,1.125068 0,0.374657 0.749313,0 0,-0.374657 z m 1.125068,0 0,0.374657 0.749314,0 0,-0.374657 z m 1.125069,0 0,0.374657 0.749313,0 0,-0.374657 z m 1.125069,0 0,0.374657 0.749313,0 0,-0.374657 z m 1.125068,0 0,0.374657 0.749314,0 0,-0.374657 z m 1.125069,0 0,0.374657 0.749313,0 0,-0.374657 z m 1.1250688,0 0,0.374657 0.749313,0 0,-0.374657 z m 1.125068,0 0,0.374657 0.374657,0 0,1.1250687 0.750412,0 0,-1.4997257 z m 1.499726,0 0,0.374657 0.374656,0 0,-0.374657 z m -9.3752058,0.750412 0,0.7493137 1.125068,0 0,-0.7493137 z m 1.499725,0 0,0.7493137 0.750412,0 0,-0.7493137 z m 1.125069,0 0,0.7493137 0.750412,0 0,-0.7493137 z m 1.125068,0 0,0.7493137 0.750412,0 0,-0.7493137 z m 1.125069,0 0,0.7493137 0.750412,0 0,-0.7493137 z m 1.125069,0 0,0.7493137 0.7504118,0 0,-0.7493137 z m 1.1250678,0 0,0.7493137 0.750412,0 0,-0.7493137 z m 2.250138,0 0,0.7493137 0.374656,0 0,-0.7493137 z m -9.3752058,1.1250687 0,0.749313 0.749313,0 0,-0.749313 z m 1.125068,0 0,0.749313 0.749314,0 0,-0.749313 z m 1.125069,0 0,0.749313 4.8749308,0 0,-0.749313 z m 5.2495878,0 0,0.749313 0.750412,0 0,-0.749313 z m 1.125069,0 0,0.749313 0.375755,0 0,-0.749313 z m 0.750412,0 0,0.749313 0.374656,0 0,-0.749313 z"
     id="path4"
     inkscape:connector-curvature="0" />
</svg>
