<?xml version="1.0" encoding="UTF-8" standalone="no"?>
<svg
   xmlns:dc="http://purl.org/dc/elements/1.1/"
   xmlns:cc="http://creativecommons.org/ns#"
   xmlns:rdf="http://www.w3.org/1999/02/22-rdf-syntax-ns#"
   xmlns:svg="http://www.w3.org/2000/svg"
   xmlns="http://www.w3.org/2000/svg"
   xmlns:sodipodi="http://sodipodi.sourceforge.net/DTD/sodipodi-0.dtd"
   xmlns:inkscape="http://www.inkscape.org/namespaces/inkscape"
   width="16"
   height="16"
   viewBox="0 0 16 16"
   id="svg2"
   version="1.1"
   inkscape:version="0.48.4 r9939"
   sodipodi:docname="personalization_normal.svg">
  <metadata
     id="metadata16">
    <rdf:RDF>
      <cc:Work
         rdf:about="">
        <dc:format>image/svg+xml</dc:format>
        <dc:type
           rdf:resource="http://purl.org/dc/dcmitype/StillImage" />
      </cc:Work>
    </rdf:RDF>
  </metadata>
  <defs
     id="defs14" />
  <sodipodi:namedview
     pagecolor="#ffffff"
     bordercolor="#666666"
     borderopacity="1"
     objecttolerance="10"
     gridtolerance="10"
     guidetolerance="10"
     inkscape:pageopacity="0"
     inkscape:pageshadow="2"
     inkscape:window-width="1366"
     inkscape:window-height="713"
     id="namedview12"
     showgrid="false"
     inkscape:zoom="14.75"
     inkscape:cx="8.1016949"
     inkscape:cy="8"
     inkscape:window-x="0"
     inkscape:window-y="24"
     inkscape:window-maximized="1"
     inkscape:current-layer="svg2" />
  <g
     style="fill:#4d4d4d"
     id="g4"
     transform="matrix(1.124892,0,0,1.124892,-0.8648092,-0.78391441)">
    <path
       d="M 7.871094,5.441406 C 5.335938,5.550781 2.867188,6.789062 3.914062,9.292969 5.441406,8.71875 7.570312,9.578125 6.6875,10.003906 8.429688,11.4375 12.730469,9.121094 12.304688,7.148438 11.859375,5.949219 9.84375,5.351562 7.871094,5.441406 z M 7.804688,6.148438 c 0.527343,0 0.957031,0.140624 0.957031,0.316406 0,0.171875 -0.429688,0.3125 -0.957031,0.3125 -0.53125,0 -0.957032,-0.140625 -0.957032,-0.3125 0,-0.175782 0.425782,-0.316406 0.957032,-0.316406 z m 2.367187,0.523437 c 0.53125,0 0.957031,0.140625 0.957031,0.3125 0,0.175781 -0.425781,0.316406 -0.957031,0.316406 -0.527344,0 -0.957031,-0.140625 -0.957031,-0.316406 0,-0.171875 0.429687,-0.3125 0.957031,-0.3125 z M 5.820312,7.148438 c 0.527344,0 0.957032,0.140624 0.957032,0.316406 0,0.175781 -0.429688,0.316406 -0.957032,0.316406 -0.53125,0 -0.960937,-0.140625 -0.960937,-0.316406 0,-0.175782 0.429687,-0.316406 0.960937,-0.316406 z m 4.328126,0.828124 c 0.53125,0 0.960937,0.140626 0.960937,0.316407 0,0.175781 -0.429687,0.316406 -0.960937,0.316406 -0.527344,0 -0.957032,-0.140625 -0.957032,-0.316406 0,-0.175781 0.429688,-0.316407 0.957032,-0.316407 z M 8.480469,9.175781 c 0.53125,0 0.957031,0.140625 0.957031,0.316407 0,0.171874 -0.425781,0.3125 -0.957031,0.3125 -0.527344,0 -0.957031,-0.140626 -0.957031,-0.3125 0,-0.175782 0.429687,-0.316407 0.957031,-0.316407 z"
       id="path6"
       inkscape:connector-curvature="0"
       style="fill:#4d4d4d" />
    <path
       d="M 11.488281,3.035156 6.785156,10.90625 C 6.417969,10.898438 6.074219,10.722656 5.828125,10.371094 l 5.039063,-7.679688 c 0.339843,-0.082031 0.546874,0.035156 0.621093,0.34375 z"
       id="path8"
       inkscape:connector-curvature="0"
       style="fill:#4d4d4d" />
    <path
       d="M 5.800781,12.273438 C 6.328125,12.203125 7.144531,11.53125 6.765625,10.554688 5.847656,10.292969 6.058594,10.160156 6.058594,10.160156 4.800781,10.464844 3.847656,11.898438 4.109375,12.8125 c 0.167969,0.578125 0.136719,0.519531 0.136719,0.519531 0.351562,-1.121093 0.355468,-0.914062 1.554687,-1.058593 z"
       id="path10"
       inkscape:connector-curvature="0"
       style="fill:#4d4d4d" />
  </g>
</svg>
