<?xml version="1.0" encoding="UTF-8" standalone="no"?>
<!-- Created with Inkscape (http://www.inkscape.org/) -->

<svg
   xmlns:dc="http://purl.org/dc/elements/1.1/"
   xmlns:cc="http://creativecommons.org/ns#"
   xmlns:rdf="http://www.w3.org/1999/02/22-rdf-syntax-ns#"
   xmlns:svg="http://www.w3.org/2000/svg"
   xmlns="http://www.w3.org/2000/svg"
   xmlns:sodipodi="http://sodipodi.sourceforge.net/DTD/sodipodi-0.dtd"
   xmlns:inkscape="http://www.inkscape.org/namespaces/inkscape"
   id="svg3014"
   height="16"
   width="16"
   version="1.1"
   inkscape:version="0.48.4 r9939"
   sodipodi:docname="power_normal.svg">
  <defs
     id="defs3085" />
  <sodipodi:namedview
     pagecolor="#ffffff"
     bordercolor="#666666"
     borderopacity="1"
     objecttolerance="10"
     gridtolerance="10"
     guidetolerance="10"
     inkscape:pageopacity="0"
     inkscape:pageshadow="2"
     inkscape:window-width="1366"
     inkscape:window-height="713"
     id="namedview3083"
     showgrid="false"
     inkscape:zoom="9.8333333"
     inkscape:cx="34.231375"
     inkscape:cy="13.113757"
     inkscape:window-x="0"
     inkscape:window-y="24"
     inkscape:window-maximized="1"
     inkscape:current-layer="svg3014" />
  <metadata
     id="metadata3019">
    <rdf:RDF>
      <cc:Work
         rdf:about="">
        <dc:format>image/svg+xml</dc:format>
        <dc:type
           rdf:resource="http://purl.org/dc/dcmitype/StillImage" />
        <dc:title />
      </cc:Work>
    </rdf:RDF>
  </metadata>
  <path
     id="rect2401"
     style="fill:#4d4d4d"
     d="m 3.1016813,4.906869 c -0.5539924,0 -0.9999863,0.4459939 -0.9999863,0.9999862 v 3.9999451 c 0,0.5539927 0.4459939,0.9999867 0.9999863,0.9999867 h 8.9998757 c 0.553993,0 0.999986,-0.445994 0.999986,-0.9999867 V 9.4068072 h 0.192163 c 0.553992,0 0.807989,-0.4459939 0.807989,-0.9999863 V 7.4068346 c 0,-0.5539924 -0.212997,-0.9999862 -0.76699,-0.9999862 H 13.101708 V 5.9068552 c 0,-0.5539923 -0.445993,-0.9999862 -0.999986,-0.9999862 z m 0,0.4999931 h 8.9998757 c 0.276996,0 0.499993,0.2229969 0.499993,0.4999931 v 3.9999451 c 0,0.2769967 -0.222997,0.4999937 -0.499993,0.4999937 H 3.1016813 c -0.2769962,0 -0.4999931,-0.222997 -0.4999931,-0.4999937 V 5.9068552 c 0,-0.2769962 0.2229969,-0.4999931 0.4999931,-0.4999931 z m 9.9998617,1.4999794 c 0.298706,0 0.499994,0.0255 0.499994,0.4999931 v 0.9999863 c 0,0.4956932 -0.203223,0.4999931 -0.499994,0.4999931 z"
     inkscape:connector-curvature="0" />
  <path
     inkscape:connector-curvature="0"
     id="rect3190"
     style="fill:#4d4d4d;fill-rule:evenodd"
     d="m 3.3516779,5.9068552 c -0.1384981,0 -0.2499966,0.1114985 -0.2499966,0.2499966 v 3.4999519 c 0,0.1384981 0.1114985,0.2499966 0.2499966,0.2499966 H 8.6016057 L 4.6016607,6.4068484 7.6016195,7.9068278 V 5.9068552 H 3.3516779 z m 4.2499416,0 3.4999515,3.499952 -2.4999653,-0.9999863 v 1.4999794 h 3.2499553 c 0.138498,0 0.249996,-0.1114985 0.249996,-0.2499966 V 6.1568518 c 0,-0.1384981 -0.111498,-0.2499966 -0.249996,-0.2499966 H 7.6016195 z" />
</svg>
