<?xml version="1.0" encoding="UTF-8" standalone="no"?>
<!-- Created with Inkscape (http://www.inkscape.org/) -->

<svg
   xmlns:dc="http://purl.org/dc/elements/1.1/"
   xmlns:cc="http://creativecommons.org/ns#"
   xmlns:rdf="http://www.w3.org/1999/02/22-rdf-syntax-ns#"
   xmlns:svg="http://www.w3.org/2000/svg"
   xmlns="http://www.w3.org/2000/svg"
   xmlns:sodipodi="http://sodipodi.sourceforge.net/DTD/sodipodi-0.dtd"
   xmlns:inkscape="http://www.inkscape.org/namespaces/inkscape"
   id="svg3229"
   height="16"
   width="16"
   version="1.0"
   inkscape:version="0.48.4 r9939"
   sodipodi:docname="wireless.svg">
  <defs
     id="defs4042" />
  <sodipodi:namedview
     pagecolor="#ffffff"
     bordercolor="#666666"
     borderopacity="1"
     objecttolerance="10"
     gridtolerance="10"
     guidetolerance="10"
     inkscape:pageopacity="0"
     inkscape:pageshadow="2"
     inkscape:window-width="1366"
     inkscape:window-height="713"
     id="namedview4040"
     showgrid="false"
     inkscape:zoom="13.906433"
     inkscape:cx="17.632804"
     inkscape:cy="7.9132144"
     inkscape:window-x="0"
     inkscape:window-y="24"
     inkscape:window-maximized="1"
     inkscape:current-layer="svg3229" />
  <metadata
     id="metadata9">
    <rdf:RDF>
      <cc:Work
         rdf:about="">
        <dc:format>image/svg+xml</dc:format>
        <dc:type
           rdf:resource="http://purl.org/dc/dcmitype/StillImage" />
        <dc:title />
      </cc:Work>
    </rdf:RDF>
  </metadata>
  <path
     style="font-size:medium;font-style:normal;font-variant:normal;font-weight:normal;font-stretch:normal;text-indent:0;text-align:start;text-decoration:none;line-height:normal;letter-spacing:normal;word-spacing:normal;text-transform:none;direction:ltr;block-progression:tb;writing-mode:lr-tb;text-anchor:start;baseline-shift:baseline;color:#000000;fill:#4d4d4d;fill-opacity:1;stroke:none;stroke-width:1.70000005;marker:none;visibility:visible;display:inline;overflow:visible;enable-background:accumulate;font-family:Sans;-inkscape-font-specification:Sans"
     d="m 7.8373025,4.1302344 c -1.958202,0 -3.4168534,0.519674 -4.3832628,1.0489892 -0.96641,0.5293331 -1.47982,1.1051801 -1.47982,1.1051801 A 0.51102377,0.51102377 0 1 0 2.7422273,6.95875 c 0,0 0.3625239,-0.4223626 1.1988414,-0.8803981 C 4.7773863,5.6202925 6.0585968,5.1604932 7.8373025,5.1604932 9.6063725,5.1606072 10.88856,5.6186726 11.733537,6.0783519 12.578514,6.5380312 12.95111,6.95875 12.95111,6.95875 a 0.51102377,0.51102377 0 1 0 0.768008,-0.6743463 c 0,0 -0.525488,-0.575769 -1.498552,-1.1051801 C 11.2475,4.6498304 9.7870381,4.1303604 7.8373025,4.1302344 z M 7.3315413,6.3967977 C 6.1533501,6.4501927 5.2482774,6.7580257 4.6154168,7.071144 3.8921473,7.4290123 3.4915034,7.839154 3.4915034,7.839154 a 0.50955846,0.50955846 0 1 0 0.7305439,0.6930761 c 0,0 0.247946,-0.248797 0.8429349,-0.543251 0.5949913,-0.2943943 1.5076443,-0.602851 2.7723203,-0.5806889 1.2839631,0.022198 2.1947935,0.3278109 2.7910525,0.6181489 0.596257,0.290375 0.842935,0.543252 0.842935,0.543252 A 0.50999292,0.50999292 0 0 0 12.183103,7.839148 c 0,0 -0.388784,-0.3816862 -1.105183,-0.7305493 -0.716397,-0.3488691 -1.7841792,-0.6866392 -3.2218853,-0.711807 -0.1793242,-0.00314 -0.3561825,-0.0078 -0.5244916,0 z m 0.4870309,2.0792364 c -0.8574717,0.0066 -1.4824597,0.199302 -1.8919217,0.393385 -0.4094637,0.194082 -0.6368844,0.430821 -0.6368844,0.430821 a 0.51033671,0.51033671 0 1 0 0.7492761,0.693077 c 0,0 0.043736,-0.07583 0.3184398,-0.206082 0.2747156,-0.130248 0.7410034,-0.275436 1.4610878,-0.280955 0.7057235,-0.0054 1.1842747,0.145367 1.4798193,0.280955 C 9.593935,9.9228831 9.673026,10.012035 9.673026,10.012035 A 0.51657446,0.51657446 0 0 0 10.40357,9.2814861 c 0,0 -0.250046,-0.236139 -0.6743482,-0.430822 C 9.3049214,8.6559221 8.6707391,8.4694581 7.8185686,8.4759981 z M 7.3315413,10.72386 c -0.2828689,0 -0.5057612,0.191503 -0.5057612,0.412104 0,0.08195 0.020578,0.161325 0.074927,0.2248 l 0.6181522,0.468318 c 0.089914,0.06053 0.2094955,0.09365 0.3371762,0.09365 0.1518345,0 0.2807751,-0.0492 0.3746368,-0.131146 l 0.5432279,-0.412104 c 0.064458,-0.06683 0.093658,-0.153526 0.093658,-0.243518 0,-0.220601 -0.2228863,-0.412104 -0.5057612,-0.412104 l -1.0302545,0 z"
     id="path3683"
     inkscape:connector-curvature="0" />
</svg>
